<svg width="48" height="48" viewBox="0 0 48 48" fill="none" xmlns="http://www.w3.org/2000/svg">
<path d="M24 48C37.2548 48 48 37.2548 48 24C48 10.7452 37.2548 0 24 0C10.7452 0 0 10.7452 0 24C0 37.2548 10.7452 48 24 48Z" fill="url(#paint0_linear_182_3401)"/>
<path d="M8.93813 25.1743C11.7437 23.629 14.8755 22.3391 17.8017 21.0427C22.8359 18.9193 27.8901 16.8327 32.9953 14.8901C33.9886 14.5591 35.7733 14.2355 35.9483 15.7074C35.8525 17.791 35.4583 19.8624 35.1879 21.9338C34.5016 26.489 33.7084 31.0286 32.9349 35.5688C32.6684 37.0812 30.7739 37.864 29.5617 36.8962C26.6485 34.9285 23.7129 32.9798 20.8369 30.9664C19.8948 30.0092 20.7684 28.6344 21.6098 27.9508C24.0092 25.5862 26.5538 23.5772 28.8278 21.0904C29.4412 19.6092 27.6288 20.8575 27.031 21.2401C23.7462 23.5037 20.5418 25.9055 17.0786 27.8949C15.3096 28.8686 13.2478 28.0365 11.4796 27.4931C9.89419 26.8367 7.57097 26.1754 8.93797 25.1745L8.93813 25.1743Z" fill="white"/>
<defs>
<linearGradient id="paint0_linear_182_3401" x1="32.002" y1="8.0016" x2="20.002" y2="36" gradientUnits="userSpaceOnUse">
<stop stop-color="#37AEE2"/>
<stop offset="1" stop-color="#1E96C8"/>
</linearGradient>
</defs>
</svg>
